#N canvas 790 119 529 564 10;
#X declare -lib mrpeach;
#N canvas 3 77 373 523 6s3cos1 0;
#X obj 49 483 dac~;
#X obj 115 200 osc~;
#X obj 64 200 osc~;
#X obj 6 200 osc~;
#X obj 64 295 clip~ -1 1;
#X obj 48 380 cos~;
#X obj 49 355 +~;
#X obj 7 224 *~ 0.3;
#X obj 64 224 *~ 0.3;
#X obj 114 224 *~ 0.3;
#X obj 48 458 *~ 0.16;
#X obj 65 268 +~;
#X obj 96 268 * -1;
#X obj 49 329 +~;
#X obj 64 172 *;
#X obj 115 171 *;
#X obj 64 146 t b f;
#X obj 115 146 t b f;
#X obj 8 295 *~ 0.25;
#X obj 48 433 *~;
#X obj 153 342 vline~;
#X obj 152 367 *~;
#X obj 152 389 *~;
#X obj 47 406 hip~ 10;
#X msg 153 318 0 \$1;
#X msg 195 318 1 0;
#X obj 237 43 * 3000;
#X obj 153 295 f 100;
#X obj 153 267 t b b;
#X obj 37 15 inlet;
#X obj 87 15 inlet;
#X obj 137 15 inlet;
#X obj 187 15 inlet;
#X obj 237 15 inlet;
#X obj -13 15 inlet;
#X obj -13 46 mtof;
#X obj -13 70 t b f f f;
#X obj 123 481 outlet~;
#X connect 1 0 9 0;
#X connect 2 0 8 0;
#X connect 3 0 7 0;
#X connect 4 0 13 1;
#X connect 5 0 23 0;
#X connect 6 0 5 0;
#X connect 7 0 11 0;
#X connect 7 0 18 0;
#X connect 8 0 11 0;
#X connect 9 0 11 0;
#X connect 10 0 0 0;
#X connect 10 0 0 1;
#X connect 10 0 37 0;
#X connect 11 0 4 0;
#X connect 12 0 4 1;
#X connect 13 0 6 0;
#X connect 14 0 2 0;
#X connect 15 0 1 0;
#X connect 16 0 14 0;
#X connect 16 1 14 1;
#X connect 17 0 15 0;
#X connect 17 1 15 1;
#X connect 18 0 13 0;
#X connect 19 0 10 0;
#X connect 20 0 21 0;
#X connect 20 0 21 1;
#X connect 21 0 22 0;
#X connect 21 0 22 1;
#X connect 22 0 19 1;
#X connect 23 0 19 0;
#X connect 24 0 20 0;
#X connect 25 0 20 0;
#X connect 26 0 27 1;
#X connect 27 0 24 0;
#X connect 28 0 27 0;
#X connect 28 1 25 0;
#X connect 29 0 16 0;
#X connect 30 0 17 0;
#X connect 31 0 4 2;
#X connect 31 0 12 0;
#X connect 32 0 6 1;
#X connect 33 0 26 0;
#X connect 34 0 35 0;
#X connect 35 0 36 0;
#X connect 36 0 28 0;
#X connect 36 1 3 0;
#X connect 36 2 14 0;
#X connect 36 3 15 0;
#X restore 27 434 pd 6s3cos1;
#X obj 48 373 vsl 10 40 1 4 0 1 empty empty fO1 0 -8 1 8 -260818 -1
-1 957 1;
#X obj 78 373 vsl 10 40 1 4 0 1 empty empty fO2 0 -8 1 8 -260818 -1
-1 3900 1;
#X obj 135 372 vsl 10 40 0 0.25 0 1 empty empty shape 0 -8 1 8 -260818
-1 -1 809 1;
#X obj 108 373 vsl 10 40 0 1 0 1 empty empty clip 0 -8 1 8 -260818
-1 -1 0 1;
#X obj 169 372 vsl 10 40 0 1 0 1 empty empty decay 0 -8 1 8 -260818
-1 -1 3660 1;
#N canvas 0 0 450 300 random 0;
#X obj 55 101 metro 100;
#X obj 55 214 outlet;
#X obj 81 46 loadbang;
#X msg 81 69 1;
#X obj 32 46 inlet;
#X obj 55 125 random 12;
#X obj 55 153 * 3;
#X obj 55 188 + 36;
#X obj 204 47 inlet;
#X obj 154 46 inlet;
#X obj 204 71 int;
#X connect 0 0 5 0;
#X connect 2 0 3 0;
#X connect 3 0 0 0;
#X connect 4 0 0 0;
#X connect 5 0 6 0;
#X connect 6 0 7 0;
#X connect 7 0 1 0;
#X connect 8 0 10 0;
#X connect 9 0 0 1;
#X connect 10 0 7 1;
#X restore 27 248 pd random midi notes;
#X obj 27 226 tgl 15 1 empty empty on-off 0 -6 1 8 -260818 -1 -1 1
1;
#X obj 162 199 vsl 10 40 32 96 0 1 empty empty root 0 -8 1 8 -260818
-1 -1 3282 1;
#X obj 94 198 vsl 10 40 1000 100 0 1 empty empty speed 0 -8 1 8 -260818
-1 -1 3900 1;
#X obj 45 281 nbx 3 14 0 127 0 0 empty empty note 0 -6 1 10 -260818
-1 -1 91 256;
#N canvas 0 54 1366 713 a2r_announcer 0;
#X obj 397 1027 cnv 15 100 40 empty empty empty 20 12 0 14 -4034 -66577
0;
#X msg 204 346 disconnect;
#X obj 426 1176 tgl 15 0 empty empty 1=connected 20 8 0 8 -4034 -257985
-1 0 1;
#X obj 611 1134 routeOSC;
#X text 532 1133 see also:;
#X text 522 1069 bundle depth;
#X obj 381 322 cnv 15 380 30 empty empty empty 20 12 0 14 -24198 -66577
0;
#X text 693 1133 and http://opensoundcontrol.org/cnmat;
#X obj 514 1161 packOSCstream;
#X text 479 1160 see:;
#X text 614 1161 for a way to send OSC over TCP or serial connections.
;
#X text 21 1163 2009_06_08 Martin Peach;
#X obj 426 1141 tcpsend;
#X obj 445 584 l2s;
#X obj 587 589 l2s;
#X obj 821 587 l2s;
#X obj 426 1040 packOSC;
#X floatatom 472 1069 5 0 0 0 - - -;
#X obj 319 697 t b b b b b;
#X msg 170 883 ];
#X msg 790 744 symbol Mean;
#X msg 569 741 symbol Slider;
#X msg 341 743 symbol Velocity;
#X msg 220 747 ];
#X obj 448 660 s announcePack;
#X obj 591 664 s announcePack;
#X obj 820 666 s announcePack;
#X obj 344 819 s announcePack;
#X obj 573 816 s announcePack;
#X obj 792 820 s announcePack;
#X obj 217 787 s announcePack;
#X obj 172 923 s announcePack;
#X obj 426 974 r announcePack;
#X msg 186 1093 connect localhost 7010;
#X obj 870 502 s announcePack;
#X obj 168 835 del 10;
#X obj 168 798 t b;
#X obj 54 179 import mrpeach;
#X msg 875 444 [;
#X msg 820 627 /a2r/announce/Author \$1;
#X msg 589 627 /a2r/announce/Title \$1;
#X msg 445 622 /a2r/announce/Name \$1;
#X msg 792 780 /a2r/announce/Sensor/Statistics \$1;
#X msg 571 779 /a2r/announce/Sensor/Type \$1;
#X msg 341 781 /a2r/announce/Sensor/Name \$1;
#X msg 961 715 [;
#X obj 962 744 s announcePack;
#X text 401 330 <- First connect;
#X obj 380 383 cnv 15 380 30 empty empty empty 20 12 0 14 -24198 -66577
0;
#X obj 383 393 bng 15 250 50 0 empty empty empty 17 7 0 10 -262144
-1 -1;
#X text 400 391 <- Then click here to send an announcement bundle;
#X obj 966 656 s announcePack;
#X msg 965 549 6666;
#X msg 966 617 /a2r/announce/Port \$1;
#X obj 292 455 t b b b b;
#X obj 1107 442 cnv 15 200 40 empty empty empty 20 12 0 14 -4034 -66577
0;
#X obj 1050 317 unpackOSC;
#X floatatom 1134 337 10 0 0 1 millisecond_delay - -;
#X obj 1050 344 pipelist;
#X obj 1016 371 print unpacked;
#X obj 1050 287 udpreceive 6666;
#X floatatom 1267 672 5 0 0 0 - - -;
#X obj 1268 644 hsl 128 15 0 127 0 0 empty empty empty -2 -8 0 10 -262144
-1 -1 0 1;
#X obj 1333 1055 packOSC;
#X obj 1333 1093 udpsend;
#X floatatom 1336 963 5 0 0 0 - - -;
#X msg 1165 970 connect localhost 6666;
#X msg 1166 1012 disconnect;
#X msg 1333 1011 /a2r/Session_Name/Sensor/Velocity \$1;
#X obj 1143 452 routeOSC /a2r;
#X obj 1175 718 timeroll;
#X msg 182 324 connect localhost 7010;
#X obj 1264 559 routeOSC /A;
#X obj 1265 611 autoscale 0 1;
#X obj 182 164 inlet;
#X obj 242 246 del 500;
#X obj 1201 609 outlet;
#X obj 1454 594 outlet;
#X obj 1538 595 outlet;
#X obj 1632 594 outlet;
#X obj 1716 595 outlet;
#X obj 1794 589 outlet;
#X obj 1453 548 routeOSC /B;
#X obj 1537 549 routeOSC /C;
#X obj 1631 548 routeOSC /D;
#X obj 1715 549 routeOSC /E;
#X obj 1793 543 routeOSC /F;
#X obj 303 582 l2s;
#X obj 297 658 s announcePack;
#X obj 327 492 t b b b b b b;
#X msg 297 620 /a2r/announce/Stream \$1;
#X msg 302 530 list http://canal.hangar.org:8000/hangar.ogg;
#X msg 588 558 list Three cosine oscillator;
#X msg 446 553 list Three_cos_osc;
#X msg 819 559 list Obiwannabe;
#X obj 1218 501 routeOSC /Three_cos_osc;
#X connect 1 0 12 0;
#X connect 12 0 2 0;
#X connect 13 0 41 0;
#X connect 14 0 40 0;
#X connect 15 0 39 0;
#X connect 16 0 12 0;
#X connect 16 1 17 0;
#X connect 18 0 23 0;
#X connect 18 1 22 0;
#X connect 18 2 21 0;
#X connect 18 3 20 0;
#X connect 18 4 45 0;
#X connect 19 0 31 0;
#X connect 20 0 42 0;
#X connect 21 0 43 0;
#X connect 22 0 44 0;
#X connect 23 0 30 0;
#X connect 23 0 36 0;
#X connect 32 0 16 0;
#X connect 33 0 12 0;
#X connect 35 0 19 0;
#X connect 36 0 35 0;
#X connect 38 0 34 0;
#X connect 39 0 26 0;
#X connect 40 0 25 0;
#X connect 41 0 24 0;
#X connect 42 0 29 0;
#X connect 43 0 28 0;
#X connect 44 0 27 0;
#X connect 45 0 46 0;
#X connect 49 0 54 0;
#X connect 52 0 53 0;
#X connect 53 0 51 0;
#X connect 54 1 18 0;
#X connect 54 2 89 0;
#X connect 54 3 38 0;
#X connect 56 0 58 0;
#X connect 56 0 59 0;
#X connect 56 1 57 0;
#X connect 56 1 58 1;
#X connect 58 0 69 0;
#X connect 60 0 56 0;
#X connect 62 0 61 0;
#X connect 62 0 70 0;
#X connect 63 0 64 0;
#X connect 65 0 68 0;
#X connect 66 0 64 0;
#X connect 67 0 64 0;
#X connect 68 0 63 0;
#X connect 69 0 95 0;
#X connect 71 0 12 0;
#X connect 72 0 73 0;
#X connect 72 0 76 0;
#X connect 73 0 62 0;
#X connect 74 0 71 0;
#X connect 74 0 75 0;
#X connect 75 0 49 0;
#X connect 82 0 77 0;
#X connect 83 0 78 0;
#X connect 84 0 79 0;
#X connect 85 0 80 0;
#X connect 86 0 81 0;
#X connect 87 0 90 0;
#X connect 89 1 91 0;
#X connect 89 2 93 0;
#X connect 89 3 92 0;
#X connect 89 4 94 0;
#X connect 89 5 52 0;
#X connect 90 0 88 0;
#X connect 91 0 87 0;
#X connect 92 0 14 0;
#X connect 93 0 13 0;
#X connect 94 0 15 0;
#X connect 95 0 72 0;
#X connect 95 0 82 0;
#X connect 95 0 83 0;
#X connect 95 0 84 0;
#X connect 95 0 85 0;
#X connect 95 0 86 0;
#X restore 27 41 pd a2r_announcer;
#X obj 28 8 loadbang;
#X msg 154 37 \; pd dsp 1;
#X obj 37 93 - 1000;
#X obj 31 65 * 9;
#X obj 53 119 * -1;
#X obj 106 7 bng 15 250 50 0 empty empty empty 17 7 0 10 -262144 -1
-1;
#X obj 139 100 autoscale 32 96;
#X obj 47 312 autoscale 1 4;
#X obj 138 309 autoscale 0 1;
#X obj 228 310 autoscale 0 0.25;
#X obj 331 310 autoscale 0 1;
#N canvas 0 54 1366 713 a2r_streamer 0;
#X floatatom 204 519 0 0 0 0 - - -;
#X text 435 303 <-- your password for the server;
#X msg 162 421 print;
#X text 405 335 <-- choose type of server ( default = icecast );
#X text 486 315 comment;
#X obj 542 162 loadbang;
#X msg 354 395 disconnect;
#X obj 204 558 outlet;
#X obj 139 61 inlet~;
#X obj 195 60 inlet~;
#X msg 352 445 vorbis 22050 1 72 64 48;
#X text 352 428 vorbis <samplerate> <channels> <max.br> <nom.br> <min.br>
;
#X obj 457 190 t b b b b b;
#X text 538 278 <-- host \, mountpoint and port;
#X msg 339 336 server 1;
#X text 356 521 possible tags: TITLE \, ARTIST \, PERFORMER \, DESCRIPTION
\,;
#X text 445 534 GENRE \, LOCATION \, COPYRIGHT \, CONTACT \, DATE;
#X text 354 482 comment: <TAG> <content>;
#X msg 354 499 ARTIST your_name;
#X text 357 553 '_' (underline) or '=' (equal sign) will get replaced
with spaces!;
#X floatatom 276 539 10 0 0 0 - - -;
#X text 274 550 ogg pages;
#X text 203 572 connection state;
#X obj 457 164 bng 15 250 50 0 empty empty empty 17 7 0 10 -262144
-1 -1;
#X obj 204 481 oggcast~ 2 256;
#X obj 305 602 outlet;
#X msg 317 279 connect canal.hangar.org hangar.ogg 8000;
#X msg 333 306 passwd yourpass;
#X connect 0 0 7 0;
#X connect 2 0 24 0;
#X connect 5 0 12 0;
#X connect 6 0 24 0;
#X connect 8 0 24 0;
#X connect 9 0 24 1;
#X connect 10 0 24 0;
#X connect 12 0 26 0;
#X connect 12 1 27 0;
#X connect 12 2 14 0;
#X connect 12 4 10 0;
#X connect 14 0 24 0;
#X connect 18 0 24 0;
#X connect 20 0 25 0;
#X connect 23 0 12 0;
#X connect 24 0 0 0;
#X connect 24 1 20 0;
#X connect 26 0 24 0;
#X connect 27 0 24 0;
#X restore 28 488 pd a2r_streamer;
#X obj 26 508 tgl 15 0 empty empty empty 17 7 0 10 -262144 -1 -1 0
1;
#X floatatom 115 510 5 0 0 0 - - -;
#X text 246 16 Three cosine oscillator by obiwannabe (http://www.obiwannabe.co.uk/)
;
#X text 247 50 Patch adapted as an example for the A2R tool;
#X connect 0 0 23 0;
#X connect 0 0 23 1;
#X connect 1 0 0 1;
#X connect 2 0 0 2;
#X connect 3 0 0 4;
#X connect 4 0 0 3;
#X connect 5 0 0 5;
#X connect 6 0 0 0;
#X connect 6 0 10 0;
#X connect 7 0 6 0;
#X connect 8 0 6 2;
#X connect 9 0 6 1;
#X connect 11 0 15 0;
#X connect 11 1 18 0;
#X connect 11 2 19 0;
#X connect 11 3 20 0;
#X connect 11 4 21 0;
#X connect 11 5 22 0;
#X connect 12 0 11 0;
#X connect 12 0 13 0;
#X connect 14 0 16 0;
#X connect 15 0 14 0;
#X connect 16 0 9 0;
#X connect 17 0 11 0;
#X connect 18 0 8 0;
#X connect 19 0 1 0;
#X connect 20 0 4 0;
#X connect 21 0 3 0;
#X connect 22 0 5 0;
#X connect 23 0 24 0;
#X connect 23 1 25 0;
