#N canvas 0 54 1366 713 10;
#X floatatom 214 529 0 0 0 0 - - -;
#X text 445 313 <-- your password for the server;
#X msg 172 431 print;
#X text 415 345 <-- choose type of server ( default = icecast );
#X text 496 325 comment;
#X obj 552 172 loadbang;
#X msg 364 405 disconnect;
#X obj 214 568 outlet;
#X obj 149 71 inlet~;
#X obj 205 70 inlet~;
#X msg 362 455 vorbis 22050 1 72 64 48;
#X text 362 438 vorbis <samplerate> <channels> <max.br> <nom.br> <min.br>
;
#X obj 467 200 t b b b b b;
#X text 548 288 <-- host \, mountpoint and port;
#X msg 349 346 server 1;
#X text 366 531 possible tags: TITLE \, ARTIST \, PERFORMER \, DESCRIPTION
\,;
#X text 455 544 GENRE \, LOCATION \, COPYRIGHT \, CONTACT \, DATE;
#X text 364 492 comment: <TAG> <content>;
#X msg 364 509 ARTIST your_name;
#X text 367 563 '_' (underline) or '=' (equal sign) will get replaced
with spaces!;
#X floatatom 286 549 10 0 0 0 - - -;
#X text 284 560 ogg pages;
#X text 213 582 connection state;
#X obj 467 174 bng 15 250 50 0 empty empty empty 17 7 0 10 -262144
-1 -1;
#X obj 214 491 oggcast~ 2 256;
#X obj 315 612 outlet;
#X msg 327 289 connect canal.hangar.org hangar.ogg 8000;
#X msg 343 316 passwd yourpass;
#X connect 0 0 7 0;
#X connect 2 0 24 0;
#X connect 5 0 12 0;
#X connect 6 0 24 0;
#X connect 8 0 24 0;
#X connect 9 0 24 1;
#X connect 10 0 24 0;
#X connect 12 0 26 0;
#X connect 12 1 27 0;
#X connect 12 2 14 0;
#X connect 12 4 10 0;
#X connect 14 0 24 0;
#X connect 18 0 24 0;
#X connect 20 0 25 0;
#X connect 23 0 12 0;
#X connect 24 0 0 0;
#X connect 24 1 20 0;
#X connect 26 0 24 0;
#X connect 27 0 24 0;
