#N canvas 0 54 1366 713 12;
#X declare -lib mrpeach;
#X obj 387 1017 cnv 15 100 40 empty empty empty 20 12 0 14 -4034 -66577
0;
#X msg 194 336 disconnect;
#X obj 416 1166 tgl 15 0 empty empty 1=connected 20 8 0 8 -4034 -257985
-1 0 1;
#X obj 601 1124 routeOSC;
#X text 522 1123 see also:;
#X text 512 1059 bundle depth;
#X obj 371 312 cnv 15 380 30 empty empty empty 20 12 0 14 -24198 -66577
0;
#X text 683 1123 and http://opensoundcontrol.org/cnmat;
#X obj 504 1151 packOSCstream;
#X text 469 1150 see:;
#X text 604 1151 for a way to send OSC over TCP or serial connections.
;
#X text 11 1153 2009_06_08 Martin Peach;
#X obj 416 1131 tcpsend;
#X obj 416 1030 packOSC;
#X floatatom 462 1059 5 0 0 0 - - -;
#X obj 309 687 t b b b b b;
#X msg 160 873 ];
#X msg 780 734 symbol Mean;
#X msg 559 731 symbol Slider;
#X msg 331 733 symbol Velocity;
#X msg 210 737 ];
#X obj 334 809 s announcePack;
#X obj 563 806 s announcePack;
#X obj 782 810 s announcePack;
#X obj 207 777 s announcePack;
#X obj 162 913 s announcePack;
#X obj 416 964 r announcePack;
#X msg 176 1083 connect localhost 7010;
#X obj 158 825 del 10;
#X obj 158 788 t b;
#X obj 44 169 import mrpeach;
#X msg 865 434 [;
#X msg 782 770 /a2r/announce/Sensor/Statistics \$1;
#X msg 561 769 /a2r/announce/Sensor/Type \$1;
#X msg 331 771 /a2r/announce/Sensor/Name \$1;
#X msg 951 705 [;
#X obj 952 734 s announcePack;
#X text 391 320 <- First connect;
#X obj 370 373 cnv 15 380 30 empty empty empty 20 12 0 14 -24198 -66577
0;
#X obj 373 383 bng 15 250 50 0 empty empty empty 17 7 0 10 -262144
-1 -1;
#X text 390 381 <- Then click here to send an announcement bundle;
#X obj 282 445 t b b b b;
#X obj 1097 432 cnv 15 200 40 empty empty empty 20 12 0 14 -4034 -66577
0;
#X obj 1040 307 unpackOSC;
#X floatatom 1124 327 10 0 0 1 millisecond_delay - -;
#X obj 1040 334 pipelist;
#X obj 1006 361 print unpacked;
#X obj 1040 277 udpreceive 6666;
#X obj 1323 1045 packOSC;
#X obj 1323 1083 udpsend;
#X floatatom 1326 953 5 0 0 0 - - -;
#X msg 1155 960 connect localhost 6666;
#X msg 1156 1002 disconnect;
#X msg 1323 1001 /a2r/Session_Name/Sensor/Velocity \$1;
#X obj 1133 442 routeOSC /a2r;
#X msg 172 314 connect localhost 7010;
#X obj 477 576 l2s;
#X obj 619 581 l2s;
#X obj 853 579 l2s;
#X obj 480 652 s announcePack;
#X obj 623 656 s announcePack;
#X obj 852 658 s announcePack;
#X obj 902 494 s announcePack;
#X msg 852 619 /a2r/announce/Author \$1;
#X msg 621 619 /a2r/announce/Title \$1;
#X msg 477 614 /a2r/announce/Name \$1;
#X obj 998 648 s announcePack;
#X msg 997 541 6666;
#X msg 998 609 /a2r/announce/Port \$1;
#X obj 335 574 l2s;
#X obj 329 650 s announcePack;
#X obj 359 484 t b b b b b b;
#X msg 329 612 /a2r/announce/Stream \$1;
#X msg 334 522 list http://canal.hangar.org:8000/hangar.ogg;
#X msg 478 545 list Session_Name;
#X msg 620 550 list Name of the session;
#X msg 851 551 list Your name;
#X floatatom 1274 691 5 0 0 0 - - -;
#X obj 1275 663 hsl 128 15 0 127 0 0 empty empty empty -2 -8 0 10 -262144
-1 -1 0 1;
#X obj 1182 737 timeroll;
#X obj 1271 578 routeOSC /A;
#X obj 1272 630 autoscale 0 1;
#X obj 1208 628 outlet;
#X obj 1461 613 outlet;
#X obj 1545 614 outlet;
#X obj 1639 613 outlet;
#X obj 1723 614 outlet;
#X obj 1815 612 outlet;
#X obj 1460 567 routeOSC /B;
#X obj 1544 568 routeOSC /C;
#X obj 1638 567 routeOSC /D;
#X obj 1722 568 routeOSC /E;
#X obj 1814 566 routeOSC /F;
#X obj 1225 520 routeOSC /Session_Name;
#X connect 1 0 12 0;
#X connect 12 0 2 0;
#X connect 13 0 12 0;
#X connect 13 1 14 0;
#X connect 15 0 20 0;
#X connect 15 1 19 0;
#X connect 15 2 18 0;
#X connect 15 3 17 0;
#X connect 15 4 35 0;
#X connect 16 0 25 0;
#X connect 17 0 32 0;
#X connect 18 0 33 0;
#X connect 19 0 34 0;
#X connect 20 0 24 0;
#X connect 20 0 29 0;
#X connect 26 0 13 0;
#X connect 27 0 12 0;
#X connect 28 0 16 0;
#X connect 29 0 28 0;
#X connect 31 0 62 0;
#X connect 32 0 23 0;
#X connect 33 0 22 0;
#X connect 34 0 21 0;
#X connect 35 0 36 0;
#X connect 39 0 41 0;
#X connect 41 1 15 0;
#X connect 41 2 71 0;
#X connect 41 3 31 0;
#X connect 43 0 45 0;
#X connect 43 0 46 0;
#X connect 43 1 44 0;
#X connect 43 1 45 1;
#X connect 45 0 54 0;
#X connect 47 0 43 0;
#X connect 48 0 49 0;
#X connect 50 0 53 0;
#X connect 51 0 49 0;
#X connect 52 0 49 0;
#X connect 53 0 48 0;
#X connect 54 0 93 0;
#X connect 55 0 12 0;
#X connect 56 0 65 0;
#X connect 57 0 64 0;
#X connect 58 0 63 0;
#X connect 63 0 61 0;
#X connect 64 0 60 0;
#X connect 65 0 59 0;
#X connect 67 0 68 0;
#X connect 68 0 66 0;
#X connect 69 0 72 0;
#X connect 71 1 73 0;
#X connect 71 2 74 0;
#X connect 71 3 75 0;
#X connect 71 4 76 0;
#X connect 71 5 67 0;
#X connect 72 0 70 0;
#X connect 73 0 69 0;
#X connect 74 0 56 0;
#X connect 75 0 57 0;
#X connect 76 0 58 0;
#X connect 78 0 77 0;
#X connect 78 0 79 0;
#X connect 80 0 81 0;
#X connect 80 0 82 0;
#X connect 81 0 78 0;
#X connect 88 0 83 0;
#X connect 89 0 84 0;
#X connect 90 0 85 0;
#X connect 91 0 86 0;
#X connect 92 0 87 0;
#X connect 93 0 80 0;
#X connect 93 0 88 0;
#X connect 93 0 89 0;
#X connect 93 0 90 0;
#X connect 93 0 91 0;
#X connect 93 0 92 0;
